<?xml version="1.0" ?><!DOCTYPE svg  PUBLIC '-//W3C//DTD SVG 1.1//EN'  'http://www.w3.org/Graphics/SVG/1.1/DTD/svg11.dtd'><svg enable-background="new 0 0 800 800" height="800px" id="Layer_1" version="1.1" viewBox="0 0 800 800" width="800px" xml:space="preserve" xmlns="http://www.w3.org/2000/svg" xmlns:xlink="http://www.w3.org/1999/xlink"><g><path d="M770.911,649.338c-3.909-6.785-8.262-12.498-13.017-17.148V368.638c0-8.111-6.581-14.689-14.688-14.689   H41.812c-5.287,0-10.172,2.84-12.779,7.439c-2.606,4.603-2.541,10.246,0.172,14.787l154.858,259.124   c-14.829,10.055-29.206,22.92-42.764,35.084c-11.902,10.676-23.148,20.76-30.919,25.119c-16.033,8.994-29.993,11.031-38.288,5.607   c-1.729-1.135-2.975-2.439-3.828-3.672c5.935-0.627,11.132-4.865,12.689-10.992c2-7.861-2.754-15.857-10.615-17.854   c-15.091-3.836-25.255,3.152-29.722,10.967c-6.722,11.764-3.254,28.715,8.238,40.311c4.147,4.18,15.624,13.574,34.771,13.574   c11.107,0,24.789-3.162,41.125-12.316c10.598-5.951,22.451-16.574,36.157-28.875c11.459-10.266,25.017-22.414,38.296-31.615   c9.189-6.361,18.214-11.242,26.345-13.193c3.706-0.885,7.239-1.227,10.484-0.717c2.656,0.426,10.616,1.787,19.255,16.213   c0.197,0.332,0.385,0.578,0.59,0.922c4.057,7.033,13.034,9.439,20.058,5.391c2.647-1.529,4.631-3.754,5.877-6.313   c2.049-4.234,2.042-9.369-0.492-13.75c-10.525-18.256-24.198-28.846-40.657-31.473c-10.246-1.635-20.493,0.004-30.641,3.75   L67.707,383.328h660.811v234.368c-30.706-3.807-61.396,20.654-89.135,45.244c-2.86,2.537-5.705,5.074-8.492,7.578   c-9.524,8.539-18.591,16.641-25.837,21.801c-1.812,1.291-3.542,2.451-5.099,3.324c-16.033,8.992-29.985,11.027-38.28,5.611   c-1.729-1.133-2.967-2.432-3.82-3.66c3.788-0.402,7.148-2.387,9.583-5.275c1.386-1.639,2.541-3.496,3.106-5.713   c2-7.861-2.754-15.857-10.606-17.857c-15.1-3.844-25.264,3.143-29.739,10.963c-2.155,3.775-3.156,8.111-3.279,12.607   c-0.277,9.51,3.722,19.824,11.525,27.693c4.148,4.182,15.607,13.574,34.764,13.57c11.106,0,24.788-3.156,41.116-12.316   c10.615-5.951,22.451-16.574,36.174-28.873c0.024-0.025,0.058-0.051,0.082-0.074c10.574-9.48,22.935-20.514,35.214-29.379   c14.418-10.406,28.706-17.82,39.821-16.068c0.655,0.105,1.656,0.27,2.902,0.67c3.868,1.238,10.229,4.816,16.942,16.469   c2.664,4.623,7.468,7.197,12.435,7.299c2.591,0.053,5.214-0.52,7.624-1.91C772.552,665.346,774.962,656.365,770.911,649.338z" fill="#4D4D4D"/><path d="M170.3,458.756c0,18.898,15.369,34.276,34.263,34.276c18.902,0,34.28-15.378,34.28-34.276   s-15.377-34.271-34.28-34.271C185.669,424.484,170.3,439.857,170.3,458.756z" fill="#4D4D4D"/><path d="M347.962,458.756c0-18.898-15.377-34.271-34.279-34.271c-18.894,0-34.263,15.373-34.263,34.271   s15.369,34.276,34.263,34.276C332.584,493.032,347.962,477.654,347.962,458.756z" fill="#4D4D4D"/><path d="M423.646,493.032c18.894,0,34.271-15.378,34.271-34.276s-15.378-34.271-34.271-34.271   c-18.895,0-34.271,15.373-34.271,34.271S404.751,493.032,423.646,493.032z" fill="#4D4D4D"/><path d="M215.736,313.39c0,8.111,6.583,14.689,14.689,14.689s14.689-6.578,14.689-14.689v-10.615h173.621   c8.115,0,14.688-6.578,14.688-14.688c0-8.111-6.573-14.689-14.688-14.689H245.115v-6.452c0-0.426-0.042-1.078-0.074-1.5   c-0.017-0.094-0.755-9.406,5.295-16.009c6.492-7.074,18.525-8.558,27.477-8.558h351.652c8.106,0,14.688-6.578,14.688-14.689   c0-8.111-6.582-14.689-14.688-14.689h-67.126V80.091c0-8.111-6.582-14.689-14.689-14.689h-56.87   c-8.107,0-14.689,6.578-14.689,14.689v131.411h-56.444V122.74c0-8.111-6.583-14.689-14.689-14.689h-56.871   c-8.107,0-14.689,6.578-14.689,14.689v88.761h-55.583c-21.919,0-38.601,6.254-49.592,18.595   c-13.164,14.792-12.853,32.657-12.484,37.494V313.39z M505.468,94.78h27.493v115.639h-27.493V94.78z M362.774,137.429h27.493v72.99   h-27.493V137.429z" fill="#4D4D4D"/><path d="M630.693,273.397h-40.198c-8.114,0-14.688,6.578-14.688,14.689c0,8.11,6.574,14.688,14.688,14.688h40.198   c8.115,0,14.689-6.578,14.689-14.688C645.383,279.976,638.809,273.397,630.693,273.397z" fill="#4D4D4D"/><path d="M505.615,273.397c-8.106,0-14.688,6.578-14.688,14.689c0,8.11,6.582,14.688,14.688,14.688h28.961   c8.114,0,14.688-6.578,14.688-14.688c0-8.111-6.574-14.689-14.688-14.689H505.615z" fill="#4D4D4D"/><path d="M398.661,645.711c2.713,0.434,10.975,1.754,19.845,17.143c0.016,0.033,0.05,0.055,0.065,0.086   c4.065,6.961,13.001,9.332,20.001,5.303c2.278-1.314,4.017-3.184,5.263-5.303c2.59-4.406,2.86-10.012,0.122-14.758   c-10.524-18.26-24.205-28.85-40.665-31.48c-31.779-5.037-63.576,20.803-92.183,46.238c-2.41,2.152-4.82,4.299-7.189,6.424   c-10.247,9.188-19.993,17.914-27.469,22.955c-1.205,0.814-2.369,1.557-3.451,2.164c-16.033,8.984-29.993,11.041-38.28,5.615   c-1.729-1.133-2.967-2.432-3.828-3.664c3.279-0.346,6.246-1.865,8.591-4.115c1.902-1.832,3.411-4.123,4.107-6.873   c2-7.861-2.746-15.857-10.615-17.857c-11.804-3.006-20.55,0.646-25.961,6.109c-1.5,1.521-2.795,3.158-3.762,4.854   c-6.721,11.762-3.262,28.715,8.23,40.305c4.148,4.182,15.624,13.57,34.771,13.57c11.099,0,24.789-3.16,41.117-12.32   c10.279-5.77,21.771-15.969,34.952-27.787c0.41-0.373,0.795-0.705,1.213-1.082c10.132-9.082,21.902-19.619,33.673-28.297   C372.144,651.928,387.087,643.914,398.661,645.711z" fill="#4D4D4D"/><path d="M562.986,647.887c2.574,0.414,10.156,1.771,18.509,15.053c0.442,0.713,0.886,1.309,1.328,2.09   c4.049,7.033,13.042,9.439,20.066,5.391c3.032-1.75,5.147-4.443,6.312-7.48c1.533-3.992,1.377-8.59-0.918-12.582   c-10.525-18.26-24.214-28.85-40.674-31.48c-30.854-4.898-61.756,19.354-89.708,44.063c-3.263,2.879-6.492,5.762-9.656,8.607   c-8.886,7.963-17.402,15.596-24.378,20.771c-2.377,1.758-4.565,3.234-6.541,4.34c-16.033,8.998-29.985,11.033-38.28,5.611   c-1.729-1.131-2.967-2.432-3.82-3.66c4.23-0.445,8.034-2.791,10.46-6.291c0.976-1.402,1.779-2.943,2.229-4.697   c2-7.861-2.754-15.857-10.614-17.857c-15.092-3.857-25.256,3.137-29.731,10.959c-1.992,3.492-2.984,7.465-3.246,11.596   c-0.606,9.779,3.41,20.559,11.492,28.705c4.148,4.182,15.607,13.578,34.771,13.574c11.099,0,24.789-3.16,41.117-12.318   c10.606-5.949,22.442-16.568,36.148-28.863c0.409-0.355,0.819-0.732,1.229-1.098c10.722-9.615,23.147-20.652,35.444-29.379   C538.437,653.066,552.158,646.182,562.986,647.887z" fill="#4D4D4D"/><path d="M567.035,458.756c0-18.898-15.377-34.271-34.271-34.271c-18.894,0-34.271,15.373-34.271,34.271   s15.377,34.276,34.271,34.276C551.658,493.032,567.035,477.654,567.035,458.756z" fill="#4D4D4D"/></g></svg>